<mxfile host="Electron" agent="Mozilla/5.0 (Windows NT 10.0; Win64; x64) AppleWebKit/537.36 (KHTML, like Gecko) draw.io/24.7.8 Chrome/128.0.6613.36 Electron/32.0.1 Safari/537.36" version="24.7.8">
  <diagram name="Страница — 1" id="5Pb9ERvPu9k1BCSylxLx">
    <mxGraphModel dx="1518" dy="-721" grid="1" gridSize="10" guides="1" tooltips="1" connect="1" arrows="1" fold="1" page="1" pageScale="1" pageWidth="827" pageHeight="1169" math="0" shadow="0">
      <root>
        <mxCell id="0" />
        <mxCell id="1" parent="0" />
        <mxCell id="1rCkFiS4gyEVWZDlZLgD-1" value="" style="group" parent="1" vertex="1" connectable="0">
          <mxGeometry x="350" y="1490" width="130" height="60" as="geometry" />
        </mxCell>
        <mxCell id="1rCkFiS4gyEVWZDlZLgD-2" value="LevelSelection.dfm&lt;div&gt;(главная форма)&lt;/div&gt;" style="rounded=0;whiteSpace=wrap;html=1;" parent="1rCkFiS4gyEVWZDlZLgD-1" vertex="1">
          <mxGeometry x="10" width="120" height="60" as="geometry" />
        </mxCell>
        <mxCell id="1rCkFiS4gyEVWZDlZLgD-3" value="" style="rounded=0;whiteSpace=wrap;html=1;" parent="1rCkFiS4gyEVWZDlZLgD-1" vertex="1">
          <mxGeometry y="10" width="20" height="10" as="geometry" />
        </mxCell>
        <mxCell id="1rCkFiS4gyEVWZDlZLgD-4" value="" style="rounded=0;whiteSpace=wrap;html=1;" parent="1rCkFiS4gyEVWZDlZLgD-1" vertex="1">
          <mxGeometry y="30" width="20" height="10" as="geometry" />
        </mxCell>
        <mxCell id="1rCkFiS4gyEVWZDlZLgD-5" value="" style="group" parent="1" vertex="1" connectable="0">
          <mxGeometry x="350" y="1390" width="130" height="60" as="geometry" />
        </mxCell>
        <mxCell id="1rCkFiS4gyEVWZDlZLgD-6" value="Unit1.dfm(форма заставки)" style="rounded=0;whiteSpace=wrap;html=1;" parent="1rCkFiS4gyEVWZDlZLgD-5" vertex="1">
          <mxGeometry x="10" width="120" height="60" as="geometry" />
        </mxCell>
        <mxCell id="1rCkFiS4gyEVWZDlZLgD-7" value="" style="rounded=0;whiteSpace=wrap;html=1;" parent="1rCkFiS4gyEVWZDlZLgD-5" vertex="1">
          <mxGeometry y="10" width="20" height="10" as="geometry" />
        </mxCell>
        <mxCell id="1rCkFiS4gyEVWZDlZLgD-8" value="" style="rounded=0;whiteSpace=wrap;html=1;" parent="1rCkFiS4gyEVWZDlZLgD-5" vertex="1">
          <mxGeometry y="30" width="20" height="10" as="geometry" />
        </mxCell>
        <mxCell id="1rCkFiS4gyEVWZDlZLgD-9" value="" style="group" parent="1" vertex="1" connectable="0">
          <mxGeometry x="350" y="1300" width="130" height="60" as="geometry" />
        </mxCell>
        <mxCell id="1rCkFiS4gyEVWZDlZLgD-10" value="Hoshi.dpr(фыйл проекта)" style="rounded=0;whiteSpace=wrap;html=1;" parent="1rCkFiS4gyEVWZDlZLgD-9" vertex="1">
          <mxGeometry x="10" width="120" height="60" as="geometry" />
        </mxCell>
        <mxCell id="1rCkFiS4gyEVWZDlZLgD-11" value="" style="rounded=0;whiteSpace=wrap;html=1;" parent="1rCkFiS4gyEVWZDlZLgD-9" vertex="1">
          <mxGeometry y="10" width="20" height="10" as="geometry" />
        </mxCell>
        <mxCell id="1rCkFiS4gyEVWZDlZLgD-12" value="" style="rounded=0;whiteSpace=wrap;html=1;" parent="1rCkFiS4gyEVWZDlZLgD-9" vertex="1">
          <mxGeometry y="30" width="20" height="10" as="geometry" />
        </mxCell>
        <mxCell id="1rCkFiS4gyEVWZDlZLgD-13" value="" style="group" parent="1" vertex="1" connectable="0">
          <mxGeometry x="350" y="1210" width="130" height="60" as="geometry" />
        </mxCell>
        <mxCell id="1rCkFiS4gyEVWZDlZLgD-14" value="&lt;font style=&quot;font-size: 9px;&quot;&gt;Hoshi.exe(исполняемый файл)&lt;/font&gt;" style="rounded=0;whiteSpace=wrap;html=1;" parent="1rCkFiS4gyEVWZDlZLgD-13" vertex="1">
          <mxGeometry x="10" width="120" height="60" as="geometry" />
        </mxCell>
        <mxCell id="1rCkFiS4gyEVWZDlZLgD-15" value="" style="rounded=0;whiteSpace=wrap;html=1;" parent="1rCkFiS4gyEVWZDlZLgD-13" vertex="1">
          <mxGeometry y="10" width="20" height="10" as="geometry" />
        </mxCell>
        <mxCell id="1rCkFiS4gyEVWZDlZLgD-16" value="" style="rounded=0;whiteSpace=wrap;html=1;" parent="1rCkFiS4gyEVWZDlZLgD-13" vertex="1">
          <mxGeometry y="30" width="20" height="10" as="geometry" />
        </mxCell>
        <mxCell id="1rCkFiS4gyEVWZDlZLgD-17" value="" style="endArrow=none;dashed=1;html=1;dashPattern=1 3;strokeWidth=2;rounded=0;entryX=0.5;entryY=1;entryDx=0;entryDy=0;startArrow=open;startFill=0;" parent="1" target="1rCkFiS4gyEVWZDlZLgD-6" edge="1">
          <mxGeometry width="50" height="50" relative="1" as="geometry">
            <mxPoint x="420" y="1490" as="sourcePoint" />
            <mxPoint x="550" y="1520" as="targetPoint" />
          </mxGeometry>
        </mxCell>
        <mxCell id="1rCkFiS4gyEVWZDlZLgD-18" value="" style="endArrow=none;dashed=1;html=1;dashPattern=1 3;strokeWidth=2;rounded=0;entryX=0.5;entryY=1;entryDx=0;entryDy=0;startArrow=open;startFill=0;exitX=0.5;exitY=0;exitDx=0;exitDy=0;" parent="1" source="1rCkFiS4gyEVWZDlZLgD-6" target="1rCkFiS4gyEVWZDlZLgD-10" edge="1">
          <mxGeometry width="50" height="50" relative="1" as="geometry">
            <mxPoint x="510" y="1490" as="sourcePoint" />
            <mxPoint x="430" y="1460" as="targetPoint" />
          </mxGeometry>
        </mxCell>
        <mxCell id="1rCkFiS4gyEVWZDlZLgD-19" value="" style="endArrow=none;dashed=1;html=1;dashPattern=1 3;strokeWidth=2;rounded=0;entryX=0.5;entryY=1;entryDx=0;entryDy=0;startArrow=open;startFill=0;exitX=0.5;exitY=0;exitDx=0;exitDy=0;" parent="1" source="1rCkFiS4gyEVWZDlZLgD-10" target="1rCkFiS4gyEVWZDlZLgD-14" edge="1">
          <mxGeometry width="50" height="50" relative="1" as="geometry">
            <mxPoint x="430" y="1400" as="sourcePoint" />
            <mxPoint x="430" y="1370" as="targetPoint" />
          </mxGeometry>
        </mxCell>
        <mxCell id="1rCkFiS4gyEVWZDlZLgD-20" value="" style="group" parent="1" vertex="1" connectable="0">
          <mxGeometry x="210" y="1420" width="130" height="60" as="geometry" />
        </mxCell>
        <mxCell id="1rCkFiS4gyEVWZDlZLgD-21" value="LevelSelection.pas&amp;nbsp;" style="rounded=0;whiteSpace=wrap;html=1;" parent="1rCkFiS4gyEVWZDlZLgD-20" vertex="1">
          <mxGeometry x="10" width="120" height="60" as="geometry" />
        </mxCell>
        <mxCell id="1rCkFiS4gyEVWZDlZLgD-22" value="" style="rounded=0;whiteSpace=wrap;html=1;" parent="1rCkFiS4gyEVWZDlZLgD-20" vertex="1">
          <mxGeometry y="10" width="20" height="10" as="geometry" />
        </mxCell>
        <mxCell id="1rCkFiS4gyEVWZDlZLgD-23" value="" style="rounded=0;whiteSpace=wrap;html=1;" parent="1rCkFiS4gyEVWZDlZLgD-20" vertex="1">
          <mxGeometry y="30" width="20" height="10" as="geometry" />
        </mxCell>
        <mxCell id="1rCkFiS4gyEVWZDlZLgD-24" value="Unit1.pas" style="rounded=0;whiteSpace=wrap;html=1;" parent="1" vertex="1">
          <mxGeometry x="215" y="1320" width="120" height="60" as="geometry" />
        </mxCell>
        <mxCell id="1rCkFiS4gyEVWZDlZLgD-25" value="" style="endArrow=none;dashed=1;html=1;dashPattern=1 3;strokeWidth=2;rounded=0;startArrow=open;startFill=0;exitX=1.041;exitY=0.614;exitDx=0;exitDy=0;entryX=0.25;entryY=0;entryDx=0;entryDy=0;exitPerimeter=0;" parent="1" source="1rCkFiS4gyEVWZDlZLgD-21" target="1rCkFiS4gyEVWZDlZLgD-2" edge="1">
          <mxGeometry width="50" height="50" relative="1" as="geometry">
            <mxPoint x="490" y="1880" as="sourcePoint" />
            <mxPoint x="490" y="1860" as="targetPoint" />
          </mxGeometry>
        </mxCell>
        <mxCell id="1rCkFiS4gyEVWZDlZLgD-26" value="" style="endArrow=none;dashed=1;html=1;dashPattern=1 3;strokeWidth=2;rounded=0;startArrow=open;startFill=0;exitX=1;exitY=0.5;exitDx=0;exitDy=0;entryX=0.25;entryY=0;entryDx=0;entryDy=0;" parent="1" source="1rCkFiS4gyEVWZDlZLgD-24" target="1rCkFiS4gyEVWZDlZLgD-6" edge="1">
          <mxGeometry width="50" height="50" relative="1" as="geometry">
            <mxPoint x="355" y="1467" as="sourcePoint" />
            <mxPoint x="400" y="1500" as="targetPoint" />
          </mxGeometry>
        </mxCell>
        <mxCell id="1rCkFiS4gyEVWZDlZLgD-27" value="" style="group" parent="1" vertex="1" connectable="0">
          <mxGeometry x="10" y="1420" width="130" height="60" as="geometry" />
        </mxCell>
        <mxCell id="1rCkFiS4gyEVWZDlZLgD-28" value="Unit3.dfm&lt;div&gt;(Настройки)&lt;/div&gt;" style="rounded=0;whiteSpace=wrap;html=1;" parent="1rCkFiS4gyEVWZDlZLgD-27" vertex="1">
          <mxGeometry x="10" width="120" height="60" as="geometry" />
        </mxCell>
        <mxCell id="1rCkFiS4gyEVWZDlZLgD-29" value="" style="rounded=0;whiteSpace=wrap;html=1;" parent="1rCkFiS4gyEVWZDlZLgD-27" vertex="1">
          <mxGeometry y="10" width="20" height="10" as="geometry" />
        </mxCell>
        <mxCell id="1rCkFiS4gyEVWZDlZLgD-30" value="" style="rounded=0;whiteSpace=wrap;html=1;" parent="1rCkFiS4gyEVWZDlZLgD-27" vertex="1">
          <mxGeometry y="30" width="20" height="10" as="geometry" />
        </mxCell>
        <mxCell id="1rCkFiS4gyEVWZDlZLgD-31" value="Unit1.pas" style="rounded=0;whiteSpace=wrap;html=1;" parent="1" vertex="1">
          <mxGeometry x="-100" y="1340" width="120" height="60" as="geometry" />
        </mxCell>
        <mxCell id="1rCkFiS4gyEVWZDlZLgD-33" value="" style="endArrow=none;dashed=1;html=1;dashPattern=1 3;strokeWidth=2;rounded=0;startArrow=open;startFill=0;exitX=1.041;exitY=0.614;exitDx=0;exitDy=0;entryX=0.25;entryY=0;entryDx=0;entryDy=0;exitPerimeter=0;" parent="1" edge="1">
          <mxGeometry width="50" height="50" relative="1" as="geometry">
            <mxPoint x="20" y="1387" as="sourcePoint" />
            <mxPoint x="65" y="1420" as="targetPoint" />
          </mxGeometry>
        </mxCell>
        <mxCell id="1rCkFiS4gyEVWZDlZLgD-34" value="" style="endArrow=none;dashed=1;html=1;dashPattern=1 3;strokeWidth=2;rounded=0;startArrow=open;startFill=0;exitX=0.5;exitY=1;exitDx=0;exitDy=0;entryX=1;entryY=0.5;entryDx=0;entryDy=0;" parent="1" source="1rCkFiS4gyEVWZDlZLgD-28" target="1rCkFiS4gyEVWZDlZLgD-2" edge="1">
          <mxGeometry width="50" height="50" relative="1" as="geometry">
            <mxPoint x="530" y="1450" as="sourcePoint" />
            <mxPoint x="575" y="1483" as="targetPoint" />
          </mxGeometry>
        </mxCell>
        <mxCell id="1rCkFiS4gyEVWZDlZLgD-35" value="" style="group" parent="1" vertex="1" connectable="0">
          <mxGeometry x="200" y="1963" width="130" height="60" as="geometry" />
        </mxCell>
        <mxCell id="1rCkFiS4gyEVWZDlZLgD-36" value="Lvl1.dfm&lt;div&gt;&lt;br&gt;&lt;/div&gt;" style="rounded=0;whiteSpace=wrap;html=1;" parent="1rCkFiS4gyEVWZDlZLgD-35" vertex="1">
          <mxGeometry x="10" width="120" height="60" as="geometry" />
        </mxCell>
        <mxCell id="1rCkFiS4gyEVWZDlZLgD-37" value="" style="rounded=0;whiteSpace=wrap;html=1;" parent="1rCkFiS4gyEVWZDlZLgD-35" vertex="1">
          <mxGeometry y="10" width="20" height="10" as="geometry" />
        </mxCell>
        <mxCell id="1rCkFiS4gyEVWZDlZLgD-38" value="" style="rounded=0;whiteSpace=wrap;html=1;" parent="1rCkFiS4gyEVWZDlZLgD-35" vertex="1">
          <mxGeometry y="30" width="20" height="10" as="geometry" />
        </mxCell>
        <mxCell id="1rCkFiS4gyEVWZDlZLgD-39" value="" style="group" parent="1" vertex="1" connectable="0">
          <mxGeometry x="370" y="1963" width="130" height="60" as="geometry" />
        </mxCell>
        <mxCell id="1rCkFiS4gyEVWZDlZLgD-40" value="Lvl2.dfm&lt;div&gt;&lt;br&gt;&lt;/div&gt;" style="rounded=0;whiteSpace=wrap;html=1;" parent="1rCkFiS4gyEVWZDlZLgD-39" vertex="1">
          <mxGeometry x="10" width="120" height="60" as="geometry" />
        </mxCell>
        <mxCell id="1rCkFiS4gyEVWZDlZLgD-41" value="" style="rounded=0;whiteSpace=wrap;html=1;" parent="1rCkFiS4gyEVWZDlZLgD-39" vertex="1">
          <mxGeometry y="10" width="20" height="10" as="geometry" />
        </mxCell>
        <mxCell id="1rCkFiS4gyEVWZDlZLgD-42" value="" style="rounded=0;whiteSpace=wrap;html=1;" parent="1rCkFiS4gyEVWZDlZLgD-39" vertex="1">
          <mxGeometry y="30" width="20" height="10" as="geometry" />
        </mxCell>
        <mxCell id="1rCkFiS4gyEVWZDlZLgD-43" value="" style="group" parent="1" vertex="1" connectable="0">
          <mxGeometry x="540" y="1963" width="130" height="60" as="geometry" />
        </mxCell>
        <mxCell id="1rCkFiS4gyEVWZDlZLgD-44" value="Lvl3.dfm&lt;div&gt;&lt;br&gt;&lt;/div&gt;" style="rounded=0;whiteSpace=wrap;html=1;" parent="1rCkFiS4gyEVWZDlZLgD-43" vertex="1">
          <mxGeometry x="10" width="120" height="60" as="geometry" />
        </mxCell>
        <mxCell id="1rCkFiS4gyEVWZDlZLgD-45" value="" style="rounded=0;whiteSpace=wrap;html=1;" parent="1rCkFiS4gyEVWZDlZLgD-43" vertex="1">
          <mxGeometry y="10" width="20" height="10" as="geometry" />
        </mxCell>
        <mxCell id="1rCkFiS4gyEVWZDlZLgD-46" value="" style="rounded=0;whiteSpace=wrap;html=1;" parent="1rCkFiS4gyEVWZDlZLgD-43" vertex="1">
          <mxGeometry y="30" width="20" height="10" as="geometry" />
        </mxCell>
        <mxCell id="1rCkFiS4gyEVWZDlZLgD-47" value="" style="endArrow=none;dashed=1;html=1;dashPattern=1 3;strokeWidth=2;rounded=0;startArrow=open;startFill=0;exitX=0.5;exitY=0;exitDx=0;exitDy=0;entryX=0.5;entryY=1;entryDx=0;entryDy=0;" parent="1" source="1rCkFiS4gyEVWZDlZLgD-36" target="1rCkFiS4gyEVWZDlZLgD-2" edge="1">
          <mxGeometry width="50" height="50" relative="1" as="geometry">
            <mxPoint x="780" y="1370" as="sourcePoint" />
            <mxPoint x="490" y="1530" as="targetPoint" />
          </mxGeometry>
        </mxCell>
        <mxCell id="1rCkFiS4gyEVWZDlZLgD-48" value="" style="endArrow=none;dashed=1;html=1;dashPattern=1 3;strokeWidth=2;rounded=0;startArrow=open;startFill=0;exitX=0.5;exitY=0;exitDx=0;exitDy=0;entryX=0.5;entryY=1;entryDx=0;entryDy=0;" parent="1" source="1rCkFiS4gyEVWZDlZLgD-40" target="1rCkFiS4gyEVWZDlZLgD-2" edge="1">
          <mxGeometry width="50" height="50" relative="1" as="geometry">
            <mxPoint x="260" y="1680" as="sourcePoint" />
            <mxPoint x="430" y="1560" as="targetPoint" />
          </mxGeometry>
        </mxCell>
        <mxCell id="1rCkFiS4gyEVWZDlZLgD-49" value="" style="endArrow=none;dashed=1;html=1;dashPattern=1 3;strokeWidth=2;rounded=0;startArrow=open;startFill=0;exitX=0.5;exitY=0;exitDx=0;exitDy=0;entryX=0.5;entryY=1;entryDx=0;entryDy=0;" parent="1" source="1rCkFiS4gyEVWZDlZLgD-44" target="1rCkFiS4gyEVWZDlZLgD-2" edge="1">
          <mxGeometry width="50" height="50" relative="1" as="geometry">
            <mxPoint x="430" y="1680" as="sourcePoint" />
            <mxPoint x="430" y="1560" as="targetPoint" />
          </mxGeometry>
        </mxCell>
        <mxCell id="1rCkFiS4gyEVWZDlZLgD-50" value="" style="group" parent="1" vertex="1" connectable="0">
          <mxGeometry x="200" y="2063" width="130" height="60" as="geometry" />
        </mxCell>
        <mxCell id="1rCkFiS4gyEVWZDlZLgD-51" value="Lvl1.dfm&lt;div&gt;&lt;br&gt;&lt;/div&gt;" style="rounded=0;whiteSpace=wrap;html=1;" parent="1rCkFiS4gyEVWZDlZLgD-50" vertex="1">
          <mxGeometry x="10" width="120" height="60" as="geometry" />
        </mxCell>
        <mxCell id="1rCkFiS4gyEVWZDlZLgD-52" value="" style="rounded=0;whiteSpace=wrap;html=1;" parent="1rCkFiS4gyEVWZDlZLgD-50" vertex="1">
          <mxGeometry y="10" width="20" height="10" as="geometry" />
        </mxCell>
        <mxCell id="1rCkFiS4gyEVWZDlZLgD-53" value="" style="rounded=0;whiteSpace=wrap;html=1;" parent="1rCkFiS4gyEVWZDlZLgD-50" vertex="1">
          <mxGeometry y="30" width="20" height="10" as="geometry" />
        </mxCell>
        <mxCell id="1rCkFiS4gyEVWZDlZLgD-54" value="" style="group" parent="1" vertex="1" connectable="0">
          <mxGeometry x="370" y="2063" width="130" height="60" as="geometry" />
        </mxCell>
        <mxCell id="1rCkFiS4gyEVWZDlZLgD-55" value="Lvl2.dfm&lt;div&gt;&lt;br&gt;&lt;/div&gt;" style="rounded=0;whiteSpace=wrap;html=1;" parent="1rCkFiS4gyEVWZDlZLgD-54" vertex="1">
          <mxGeometry x="10" width="120" height="60" as="geometry" />
        </mxCell>
        <mxCell id="1rCkFiS4gyEVWZDlZLgD-56" value="" style="rounded=0;whiteSpace=wrap;html=1;" parent="1rCkFiS4gyEVWZDlZLgD-54" vertex="1">
          <mxGeometry y="10" width="20" height="10" as="geometry" />
        </mxCell>
        <mxCell id="1rCkFiS4gyEVWZDlZLgD-57" value="" style="rounded=0;whiteSpace=wrap;html=1;" parent="1rCkFiS4gyEVWZDlZLgD-54" vertex="1">
          <mxGeometry y="30" width="20" height="10" as="geometry" />
        </mxCell>
        <mxCell id="1rCkFiS4gyEVWZDlZLgD-58" value="" style="group" parent="1" vertex="1" connectable="0">
          <mxGeometry x="540" y="2063" width="130" height="60" as="geometry" />
        </mxCell>
        <mxCell id="1rCkFiS4gyEVWZDlZLgD-59" value="Lvl3.dfm&lt;div&gt;&lt;br&gt;&lt;/div&gt;" style="rounded=0;whiteSpace=wrap;html=1;" parent="1rCkFiS4gyEVWZDlZLgD-58" vertex="1">
          <mxGeometry x="10" width="120" height="60" as="geometry" />
        </mxCell>
        <mxCell id="1rCkFiS4gyEVWZDlZLgD-60" value="" style="rounded=0;whiteSpace=wrap;html=1;" parent="1rCkFiS4gyEVWZDlZLgD-58" vertex="1">
          <mxGeometry y="10" width="20" height="10" as="geometry" />
        </mxCell>
        <mxCell id="1rCkFiS4gyEVWZDlZLgD-61" value="" style="rounded=0;whiteSpace=wrap;html=1;" parent="1rCkFiS4gyEVWZDlZLgD-58" vertex="1">
          <mxGeometry y="30" width="20" height="10" as="geometry" />
        </mxCell>
        <mxCell id="1rCkFiS4gyEVWZDlZLgD-62" value="" style="endArrow=none;dashed=1;html=1;dashPattern=1 3;strokeWidth=2;rounded=0;startArrow=open;startFill=0;exitX=0.5;exitY=0;exitDx=0;exitDy=0;entryX=0.5;entryY=1;entryDx=0;entryDy=0;" parent="1" source="1rCkFiS4gyEVWZDlZLgD-59" edge="1">
          <mxGeometry width="50" height="50" relative="1" as="geometry">
            <mxPoint x="620" y="1973" as="sourcePoint" />
            <mxPoint x="610" y="2023" as="targetPoint" />
          </mxGeometry>
        </mxCell>
        <mxCell id="1rCkFiS4gyEVWZDlZLgD-63" value="" style="endArrow=none;dashed=1;html=1;dashPattern=1 3;strokeWidth=2;rounded=0;startArrow=open;startFill=0;exitX=0.5;exitY=0;exitDx=0;exitDy=0;entryX=0.5;entryY=1;entryDx=0;entryDy=0;" parent="1" source="1rCkFiS4gyEVWZDlZLgD-55" edge="1">
          <mxGeometry width="50" height="50" relative="1" as="geometry">
            <mxPoint x="620" y="2073" as="sourcePoint" />
            <mxPoint x="440" y="2023" as="targetPoint" />
          </mxGeometry>
        </mxCell>
        <mxCell id="1rCkFiS4gyEVWZDlZLgD-64" value="" style="endArrow=none;dashed=1;html=1;dashPattern=1 3;strokeWidth=2;rounded=0;startArrow=open;startFill=0;exitX=0.5;exitY=0;exitDx=0;exitDy=0;entryX=0.5;entryY=1;entryDx=0;entryDy=0;" parent="1" source="1rCkFiS4gyEVWZDlZLgD-51" edge="1">
          <mxGeometry width="50" height="50" relative="1" as="geometry">
            <mxPoint x="450" y="2073" as="sourcePoint" />
            <mxPoint x="270" y="2023" as="targetPoint" />
          </mxGeometry>
        </mxCell>
        <mxCell id="1rCkFiS4gyEVWZDlZLgD-77" style="edgeStyle=orthogonalEdgeStyle;rounded=0;orthogonalLoop=1;jettySize=auto;html=1;entryX=0;entryY=0.75;entryDx=0;entryDy=0;dashed=1;dashPattern=1 2;strokeWidth=2;endArrow=open;endFill=0;" parent="1" source="1rCkFiS4gyEVWZDlZLgD-73" target="1rCkFiS4gyEVWZDlZLgD-36" edge="1">
          <mxGeometry relative="1" as="geometry" />
        </mxCell>
        <mxCell id="1rCkFiS4gyEVWZDlZLgD-78" style="edgeStyle=orthogonalEdgeStyle;rounded=0;orthogonalLoop=1;jettySize=auto;html=1;entryX=0;entryY=1;entryDx=0;entryDy=0;dashed=1;dashPattern=1 2;strokeWidth=2;endArrow=open;endFill=0;" parent="1" source="1rCkFiS4gyEVWZDlZLgD-73" target="1rCkFiS4gyEVWZDlZLgD-40" edge="1">
          <mxGeometry relative="1" as="geometry">
            <Array as="points">
              <mxPoint x="160" y="1675" />
              <mxPoint x="160" y="2190" />
              <mxPoint x="350" y="2190" />
              <mxPoint x="350" y="2023" />
            </Array>
          </mxGeometry>
        </mxCell>
        <mxCell id="1rCkFiS4gyEVWZDlZLgD-79" style="edgeStyle=orthogonalEdgeStyle;rounded=0;orthogonalLoop=1;jettySize=auto;html=1;entryX=0;entryY=0.75;entryDx=0;entryDy=0;dashed=1;dashPattern=1 2;strokeWidth=2;endArrow=open;endFill=0;" parent="1" source="1rCkFiS4gyEVWZDlZLgD-73" target="1rCkFiS4gyEVWZDlZLgD-44" edge="1">
          <mxGeometry relative="1" as="geometry">
            <Array as="points">
              <mxPoint x="150" y="1675" />
              <mxPoint x="150" y="2210" />
              <mxPoint x="520" y="2210" />
              <mxPoint x="520" y="2008" />
            </Array>
          </mxGeometry>
        </mxCell>
        <mxCell id="1rCkFiS4gyEVWZDlZLgD-81" style="edgeStyle=orthogonalEdgeStyle;rounded=0;orthogonalLoop=1;jettySize=auto;html=1;entryX=0;entryY=0.75;entryDx=0;entryDy=0;strokeWidth=2;dashed=1;dashPattern=1 2;" parent="1" source="1rCkFiS4gyEVWZDlZLgD-73" target="1rCkFiS4gyEVWZDlZLgD-2" edge="1">
          <mxGeometry relative="1" as="geometry" />
        </mxCell>
        <mxCell id="1rCkFiS4gyEVWZDlZLgD-73" value="" style="shape=cylinder3;whiteSpace=wrap;html=1;boundedLbl=1;backgroundOutline=1;size=15;rotation=90;" parent="1" vertex="1">
          <mxGeometry x="40" y="1605" width="60" height="140" as="geometry" />
        </mxCell>
        <mxCell id="1rCkFiS4gyEVWZDlZLgD-74" value="" style="group" parent="1" vertex="1" connectable="0">
          <mxGeometry y="1645" width="140" height="60" as="geometry" />
        </mxCell>
        <mxCell id="1rCkFiS4gyEVWZDlZLgD-75" value="*.mp3, *.ogg" style="text;html=1;align=center;verticalAlign=middle;whiteSpace=wrap;rounded=0;" parent="1rCkFiS4gyEVWZDlZLgD-74" vertex="1">
          <mxGeometry x="33" y="15" width="60" height="30" as="geometry" />
        </mxCell>
        <mxCell id="ZribDBLOXig80LPXYZQk-6" value="" style="shape=cylinder3;whiteSpace=wrap;html=1;boundedLbl=1;backgroundOutline=1;size=15;rotation=90;" vertex="1" parent="1">
          <mxGeometry x="640" y="1380" width="60" height="140" as="geometry" />
        </mxCell>
        <mxCell id="ZribDBLOXig80LPXYZQk-7" value="" style="group" vertex="1" connectable="0" parent="1">
          <mxGeometry x="600" y="1420" width="140" height="60" as="geometry" />
        </mxCell>
        <mxCell id="ZribDBLOXig80LPXYZQk-8" value="&lt;div style=&quot;font-size: 11px;&quot;&gt;&lt;span style=&quot;background-color: initial;&quot;&gt;ManualOfProject&lt;/span&gt;&lt;/div&gt;&lt;div style=&quot;font-size: 11px;&quot;&gt;&lt;span style=&quot;background-color: initial;&quot;&gt;.chm&lt;/span&gt;&lt;/div&gt;&lt;div style=&quot;font-size: 11px;&quot;&gt;&lt;span style=&quot;background-color: initial;&quot;&gt;(&lt;/span&gt;&lt;span style=&quot;background-color: initial;&quot;&gt;Справочная система)&lt;/span&gt;&lt;/div&gt;" style="text;html=1;align=center;verticalAlign=middle;whiteSpace=wrap;rounded=0;" vertex="1" parent="ZribDBLOXig80LPXYZQk-7">
          <mxGeometry x="33" y="15" width="60" height="30" as="geometry" />
        </mxCell>
        <mxCell id="ZribDBLOXig80LPXYZQk-9" value="" style="endArrow=none;dashed=1;html=1;dashPattern=1 3;strokeWidth=2;rounded=0;startArrow=open;startFill=0;" edge="1" parent="1" source="ZribDBLOXig80LPXYZQk-6">
          <mxGeometry width="50" height="50" relative="1" as="geometry">
            <mxPoint x="90" y="1490" as="sourcePoint" />
            <mxPoint x="480" y="1520" as="targetPoint" />
          </mxGeometry>
        </mxCell>
      </root>
    </mxGraphModel>
  </diagram>
</mxfile>
